<svg width="27" height="27" viewBox="0 0 27 27" fill="none" xmlns="http://www.w3.org/2000/svg">
<path d="M0.084375 5.99906C0.254506 5.2536 0.672731 4.588 1.27056 4.11127C1.86838 3.63454 2.61037 3.37495 3.375 3.375H23.625C24.3896 3.37495 25.1316 3.63454 25.7294 4.11127C26.3273 4.588 26.7455 5.2536 26.9156 5.99906L13.5 14.1986L0.084375 5.99906ZM0 7.92619V19.9142L9.79256 13.9101L0 7.92619ZM11.4092 14.9006L0.322312 21.6962C0.596239 22.2738 1.02858 22.7617 1.56901 23.1032C2.10944 23.4447 2.73573 23.6256 3.375 23.625H23.625C24.2642 23.6251 24.8902 23.4438 25.4303 23.102C25.9705 22.7603 26.4024 22.2722 26.676 21.6945L15.5891 14.8989L13.5 16.1764L11.4092 14.8989V14.9006ZM17.2074 13.9118L27 19.9142V7.92619L17.2074 13.9101V13.9118Z" fill="black"/>
</svg>
