<svg width="27" height="27" viewBox="0 0 27 27" fill="none" xmlns="http://www.w3.org/2000/svg">
<g clip-path="url(#clip0_55_77)">
<path d="M0 1.93388C0 0.865688 0.887625 0 1.98281 0H25.0172C26.1124 0 27 0.865688 27 1.93388V25.0661C27 26.1343 26.1124 27 25.0172 27H1.98281C0.887625 27 0 26.1343 0 25.0661V1.93388ZM8.34131 22.6024V10.4102H4.28963V22.6024H8.34131ZM6.31631 8.74463C7.72875 8.74463 8.60794 7.80975 8.60794 6.63863C8.58262 5.44219 7.73044 4.53263 6.34331 4.53263C4.95619 4.53263 4.05 5.44388 4.05 6.63863C4.05 7.80975 4.92919 8.74463 6.28931 8.74463H6.31631V8.74463ZM14.5986 22.6024V15.7933C14.5986 15.4288 14.6256 15.0643 14.7336 14.8044C15.0255 14.0771 15.6921 13.3228 16.8126 13.3228C18.279 13.3228 18.8646 14.4399 18.8646 16.0802V22.6024H22.9162V15.6094C22.9162 11.8631 20.9183 10.1216 18.252 10.1216C16.1021 10.1216 15.1386 11.3029 14.5986 12.1348V12.177H14.5716C14.5805 12.1629 14.5895 12.1489 14.5986 12.1348V10.4102H10.5486C10.5992 11.5543 10.5486 22.6024 10.5486 22.6024H14.5986Z" fill="black"/>
</g>
<defs>
<clipPath id="clip0_55_77">
<rect width="27" height="27" fill="white"/>
</clipPath>
</defs>
</svg>
