<svg width="54" height="54" viewBox="0 0 54 54" fill="none" xmlns="http://www.w3.org/2000/svg">
<path d="M3.93727 22.0665L24.833 3.48585C30.4052 0.529151 34.8185 2.65892 36.2153 4.09339C39.4431 6.97921 47.1116 13.3108 50.2024 16.6999C53.2932 20.0889 51.776 24.479 50.259 25.9649L36.4984 38.2676L30.2694 32.6478L42.954 21.4083L30.2694 10.0169L11.299 27.0281L30.2694 43.8367L36.4984 38.3182L42.8974 43.9886C42.3311 44.4949 41.0069 45.8451 36.2153 49.9121C31.7417 53.7092 25.9656 51.4647 24.1535 49.9121C19.1703 45.5074 8.12647 36.2219 4.16389 31.939C0.36971 27.8381 2.40834 23.5347 3.93727 22.0665Z" stroke="black" stroke-width="4"/>
</svg>
