<svg width="25" height="25" viewBox="0 0 25 25" fill="none" xmlns="http://www.w3.org/2000/svg">
<path d="M12.1125 0.102875C12.2305 0.0354593 12.3641 0 12.5 0C12.6359 0 12.7695 0.0354593 12.8875 0.102875L18.7469 3.45138C18.8664 3.51968 18.9658 3.61838 19.035 3.73747C19.1041 3.85656 19.1406 3.99181 19.1406 4.12952V10.3718L24.6063 13.4969C24.7254 13.5649 24.8245 13.6631 24.8936 13.7816C24.9627 13.9001 24.9994 14.0347 25 14.1719V20.8689C25 21.0066 24.9635 21.1419 24.8944 21.261C24.8252 21.3801 24.7258 21.4788 24.6063 21.5471L18.7469 24.8956C18.6289 24.963 18.4953 24.9984 18.3594 24.9984C18.2235 24.9984 18.0899 24.963 17.9719 24.8956L12.5 21.7705L7.02813 24.8971C6.91011 24.9645 6.77654 25 6.64062 25C6.50471 25 6.37114 24.9645 6.25312 24.8971L0.39375 21.5486C0.274176 21.4803 0.174781 21.3816 0.105634 21.2625C0.0364863 21.1434 4.44172e-05 21.0082 0 20.8705L0 14.1735C4.44172e-05 14.0358 0.0364863 13.9005 0.105634 13.7814C0.174781 13.6623 0.274176 13.5636 0.39375 13.4953L5.85938 10.3718V4.12952C5.85942 3.99181 5.89586 3.85656 5.96501 3.73747C6.03416 3.61838 6.13355 3.51968 6.25312 3.45138L12.1125 0.102875ZM6.64062 11.725L2.35625 14.1735L6.64062 16.622L10.925 14.1735L6.64062 11.725ZM11.7188 15.5204L7.42188 17.9751V22.8721L11.7188 20.4173V15.5204ZM13.2812 20.4173L17.5781 22.8721V17.9751L13.2812 15.5204V20.4173ZM14.075 14.1735L18.3594 16.622L22.6437 14.1735L18.3594 11.725L14.075 14.1735ZM17.5781 10.3718V5.47486L13.2812 7.93116V12.8281L17.5781 10.3718V10.3718ZM11.7188 12.8281V7.93116L7.42188 5.47486V10.3718L11.7188 12.8281ZM8.21562 4.12952L12.5 6.57801L16.7844 4.12952L12.5 1.68103L8.21562 4.12952ZM23.4375 15.5204L19.1406 17.9751V22.8721L23.4375 20.4173V15.5204ZM5.85938 22.8721V17.9751L1.5625 15.5204V20.4173L5.85938 22.8721Z" fill="white"/>
</svg>
