<svg width="50" height="50" viewBox="0 0 50 50" fill="none" xmlns="http://www.w3.org/2000/svg">
<path d="M24.225 0.20575C24.461 0.0709187 24.7282 0 25 0C25.2718 0 25.539 0.0709187 25.775 0.20575L37.4938 6.90276C37.7329 7.03937 37.9317 7.23676 38.07 7.47494C38.2083 7.71312 38.2812 7.98362 38.2812 8.25904V20.7437L49.2125 26.9938C49.4507 27.1299 49.6489 27.3263 49.7872 27.5633C49.9254 27.8003 49.9988 28.0695 50 28.3438V41.7378C49.9999 42.0133 49.927 42.2838 49.7887 42.5219C49.6504 42.7601 49.4516 42.9575 49.2125 43.0941L37.4938 49.7911C37.2577 49.926 36.9906 49.9969 36.7188 49.9969C36.4469 49.9969 36.1798 49.926 35.9437 49.7911L25 43.541L14.0563 49.7942C13.8202 49.9291 13.5531 50 13.2812 50C13.0094 50 12.7423 49.9291 12.5062 49.7942L0.7875 43.0972C0.548353 42.9606 0.349562 42.7632 0.211267 42.5251C0.0729727 42.2869 8.88345e-05 42.0164 0 41.741L0 28.3469C8.88345e-05 28.0715 0.0729727 27.801 0.211267 27.5628C0.349562 27.3247 0.548353 27.1273 0.7875 26.9907L11.7188 20.7437V8.25904C11.7188 7.98362 11.7917 7.71312 11.93 7.47494C12.0683 7.23676 12.2671 7.03937 12.5062 6.90276L24.225 0.20575ZM13.2812 23.45L4.7125 28.3469L13.2812 33.2439L21.85 28.3469L13.2812 23.45ZM23.4375 31.0407L14.8438 35.9502V45.7442L23.4375 40.8347V31.0407ZM26.5625 40.8347L35.1562 45.7442V35.9502L26.5625 31.0407V40.8347ZM28.15 28.3469L36.7188 33.2439L45.2875 28.3469L36.7188 23.45L28.15 28.3469ZM35.1562 20.7437V10.9497L26.5625 15.8623V25.6563L35.1562 20.7437V20.7437ZM23.4375 25.6563V15.8623L14.8438 10.9497V20.7437L23.4375 25.6563ZM16.4312 8.25904L25 13.156L33.5687 8.25904L25 3.36206L16.4312 8.25904ZM46.875 31.0407L38.2812 35.9502V45.7442L46.875 40.8347V31.0407ZM11.7188 45.7442V35.9502L3.125 31.0407V40.8347L11.7188 45.7442Z" fill="black"/>
</svg>
