<svg width="27" height="27" viewBox="0 0 27 27" fill="none" xmlns="http://www.w3.org/2000/svg">
<path d="M8.48138 25.3125C18.6705 25.3125 24.2443 16.8699 24.2443 9.56138C24.2443 9.32513 24.2443 9.08551 24.2342 8.84926C25.3193 8.0637 26.2559 7.09114 27 5.97714C25.9863 6.42407 24.9122 6.71863 23.8123 6.85126C24.9708 6.15877 25.8385 5.06921 26.2541 3.78507C25.1657 4.42991 23.9743 4.88258 22.7323 5.12326C21.8973 4.23399 20.7924 3.64487 19.5886 3.44716C18.3849 3.24946 17.1496 3.45419 16.074 4.02965C14.9984 4.60512 14.1426 5.5192 13.6391 6.6303C13.1357 7.7414 13.0126 8.98752 13.2891 10.1756C11.0864 10.0652 8.93163 9.49299 6.96438 8.49614C4.99714 7.49929 3.2614 6.10006 1.86975 4.3892C1.16326 5.6094 0.947656 7.05275 1.26672 8.42615C1.58577 9.79954 2.41558 11 3.58762 11.7838C2.70935 11.754 1.85038 11.5181 1.08 11.0953V11.1713C1.08151 12.4495 1.52433 13.688 2.3336 14.6775C3.14287 15.6669 4.26895 16.3466 5.5215 16.6016C5.04607 16.7326 4.55495 16.7979 4.06181 16.7957C3.71416 16.7968 3.3672 16.7645 3.02569 16.6995C3.3797 17.7999 4.06902 18.7619 4.9971 19.4509C5.92518 20.14 7.04554 20.5214 8.20125 20.5419C6.23794 22.084 3.81274 22.9203 1.31625 22.9163C0.876354 22.9181 0.436764 22.8928 0 22.8403C2.53381 24.4557 5.47644 25.3134 8.48138 25.3125V25.3125Z" fill="black"/>
</svg>
