<svg width="20" height="20" viewBox="0 0 20 20" fill="none" xmlns="http://www.w3.org/2000/svg">
<path fill-rule="evenodd" clip-rule="evenodd" d="M0 18.8889C0 18.5942 0.0957791 18.3116 0.266267 18.1032C0.436754 17.8948 0.667985 17.7778 0.909091 17.7778H19.0909C19.332 17.7778 19.5632 17.8948 19.7337 18.1032C19.9042 18.3116 20 18.5942 20 18.8889C20 19.1836 19.9042 19.4662 19.7337 19.6746C19.5632 19.8829 19.332 20 19.0909 20H0.909091C0.667985 20 0.436754 19.8829 0.266267 19.6746C0.0957791 19.4662 0 19.1836 0 18.8889ZM0 10C0 9.70531 0.0957791 9.4227 0.266267 9.21433C0.436754 9.00595 0.667985 8.88889 0.909091 8.88889H19.0909C19.332 8.88889 19.5632 9.00595 19.7337 9.21433C19.9042 9.4227 20 9.70531 20 10C20 10.2947 19.9042 10.5773 19.7337 10.7857C19.5632 10.994 19.332 11.1111 19.0909 11.1111H0.909091C0.667985 11.1111 0.436754 10.994 0.266267 10.7857C0.0957791 10.5773 0 10.2947 0 10ZM0 1.11111C0 0.816426 0.0957791 0.533811 0.266267 0.325437C0.436754 0.117063 0.667985 0 0.909091 0H19.0909C19.332 0 19.5632 0.117063 19.7337 0.325437C19.9042 0.533811 20 0.816426 20 1.11111C20 1.4058 19.9042 1.68841 19.7337 1.89679C19.5632 2.10516 19.332 2.22222 19.0909 2.22222H0.909091C0.667985 2.22222 0.436754 2.10516 0.266267 1.89679C0.0957791 1.68841 0 1.4058 0 1.11111Z" fill="black"/>
</svg>
