<svg width="27" height="27" viewBox="0 0 27 27" fill="none" xmlns="http://www.w3.org/2000/svg">
<path d="M22.9517 3.92521C21.7139 2.67591 20.2398 1.68546 18.6153 1.01158C16.9909 0.337694 15.2485 -0.00614971 13.4899 8.32453e-05C6.12056 8.32453e-05 0.11475 6.00421 0.108 13.3752C0.108 15.736 0.725625 18.0327 1.89169 20.0661L0 27.0001L7.09425 25.1405C9.05682 26.2085 11.2555 26.7683 13.4899 26.7689H13.4966C20.8676 26.7689 26.8718 20.7648 26.8785 13.387C26.8802 11.6287 26.5339 9.88746 25.8597 8.26357C25.1855 6.63967 24.1966 5.16524 22.95 3.92521H22.9517ZM13.4899 24.5043C11.4969 24.5049 9.54062 23.9686 7.82663 22.9518L7.42162 22.7088L3.213 23.8124L4.33687 19.7067L4.07363 19.2831C2.95955 17.5118 2.37034 15.461 2.37431 13.3685C2.37431 7.24958 7.36425 2.25796 13.4966 2.25796C14.9576 2.25534 16.4046 2.54192 17.7542 3.10119C19.1039 3.66045 20.3295 4.48134 21.3604 5.51652C22.3949 6.54767 23.215 7.77343 23.7734 9.1231C24.3318 10.4728 24.6174 11.9196 24.6139 13.3803C24.6071 19.5211 19.6172 24.5043 13.4899 24.5043V24.5043ZM19.5902 16.1781C19.2578 16.0111 17.6158 15.2028 17.307 15.088C16.9999 14.9783 16.7754 14.921 16.5561 15.2551C16.3316 15.5875 15.6904 16.3452 15.498 16.5629C15.3056 16.7873 15.1065 16.8126 14.7724 16.6473C14.4399 16.4785 13.3616 16.1275 12.0859 14.9851C11.0903 14.0991 10.4237 13.0023 10.2246 12.6698C10.0322 12.3357 10.206 12.1568 10.3731 11.9898C10.5199 11.8413 10.7055 11.5983 10.8726 11.4059C11.0413 11.2135 11.097 11.0718 11.2067 10.849C11.3164 10.6229 11.2641 10.4305 11.1814 10.2635C11.097 10.0964 10.4304 8.44771 10.1486 7.78283C9.87862 7.1264 9.60356 7.21752 9.39769 7.20908C9.20531 7.19727 8.98088 7.19727 8.75644 7.19727C8.58695 7.20148 8.42016 7.24068 8.26655 7.31241C8.11293 7.38414 7.97579 7.48684 7.86375 7.61408C7.55662 7.94821 6.69769 8.75652 6.69769 10.4052C6.69769 12.0539 7.89581 13.6385 8.06456 13.8629C8.22994 14.0873 10.4169 17.4606 13.7734 18.9119C14.5665 19.2578 15.1909 19.462 15.6786 19.6173C16.4801 19.8738 17.2041 19.835 17.7812 19.7523C18.4224 19.6544 19.7573 18.9423 20.0391 18.161C20.3158 17.378 20.3158 16.7097 20.2314 16.5696C20.1488 16.4279 19.9243 16.3452 19.5902 16.1781V16.1781Z" fill="black"/>
</svg>
